  0
SECTION
  2
HEADER
  9
$MEASUREMENT
  70
  1
  9
$INSUNITS
  70
  4
  0
ENDSEC
  0
SECTION
  2
TABLES
  0
TABLE
  2
LTYPE
 70
     1
  0
LTYPE
  2
CONTINUOUS
 70
    64
  3
Ausgezogene Linie
 72
    65
 73
     0
 40
0.0
  0
ENDTAB
  0
TABLE
  2
LAYER
 70
     3
  0
LAYER
  2
Contour
 70
    64
 62
     7
  6
CONTINUOUS
  0
LAYER
  2
Engraving
 70
    64
 62
     7
  6
CONTINUOUS
  0
LAYER
  2
Reference_points
 70
    64
 62
     1
  6
CONTINUOUS
  0
ENDTAB
  0
TABLE
  2
STYLE
 70
     1
  0
STYLE
  2
TXT
 70
    64
 40
0.0
 41
1.0
 50
0.0
 71
     0
 42
3.500000
  3
TXT
  0
ENDTAB
  0
ENDSEC
  0
SECTION
  2
BLOCKS
  0
ENDSEC
  0
SECTION
  2
ENTITIES
  0
LINE
  8
Contour
 62
   7
 39
0.100
  6
CONTINUOUS
 10
780.00000
 20
250.00000
 30
 0
 11
20.00000
 21
250.00000
  0
ARC
  8
Contour
 62
   7
 39
0.100
  6
CONTINUOUS
 10
20.00000
 20
230.00000
 30
 0
 40
20.00000
 50
90.00000
 51
180.00000
  0
LINE
  8
Contour
 62
   7
 39
0.100
  6
CONTINUOUS
 10
0.00000
 20
230.00000
 30
 0
 11
0.00000
 21
60.00000
  0
ARC
  8
Contour
 62
   7
 39
0.100
  6
CONTINUOUS
 10
60.00000
 20
60.00000
 30
 0
 40
60.00000
 50
180.00000
 51
270.00000
  0
LINE
  8
Contour
 62
   7
 39
0.100
  6
CONTINUOUS
 10
60.00000
 20
0.00000
 30
 0
 11
740.00000
 21
0.00000
  0
ARC
  8
Contour
 62
   7
 39
0.100
  6
CONTINUOUS
 10
740.00000
 20
60.00000
 30
 0
 40
60.00000
 50
-90.00000
 51
0.00000
  0
LINE
  8
Contour
 62
   7
 39
0.100
  6
CONTINUOUS
 10
800.00000
 20
60.00000
 30
 0
 11
800.00000
 21
230.00000
  0
ARC
  8
Contour
 62
   7
 39
0.100
  6
CONTINUOUS
 10
780.00000
 20
230.00000
 30
 0
 40
20.00000
 50
0.00000
 51
90.00000
  0
ARC
  8
Contour
 62
   7
 39
0.100
  6
CONTINUOUS
 10
20.00000
 20
230.00000
 30
 0
 40
17.00100
 50
90.00000
 51
180.00000
  0
LINE
  8
Contour
 62
   7
 39
0.100
  6
CONTINUOUS
 10
3.00000
 20
230.00000
 30
 0
 11
3.00000
 21
60.00000
  0
LINE
  8
Contour
 62
   7
 39
0.100
  6
CONTINUOUS
 10
3.00000
 20
60.00000
 30
 0
 11
3.00000
 21
60.00000
  0
ARC
  8
Contour
 62
   7
 39
0.100
  6
CONTINUOUS
 10
60.00000
 20
60.00000
 30
 0
 40
57.00000
 50
180.00000
 51
270.00000
  0
LINE
  8
Contour
 62
   7
 39
0.100
  6
CONTINUOUS
 10
60.00000
 20
3.00000
 30
 0
 11
740.00000
 21
3.00000
  0
LINE
  8
Contour
 62
   7
 39
0.100
  6
CONTINUOUS
 10
740.00000
 20
3.00000
 30
 0
 11
740.00000
 21
3.00000
  0
ARC
  8
Contour
 62
   7
 39
0.100
  6
CONTINUOUS
 10
740.00000
 20
60.00000
 30
 0
 40
57.00000
 50
-90.00000
 51
0.00000
  0
LINE
  8
Contour
 62
   7
 39
0.100
  6
CONTINUOUS
 10
797.00100
 20
60.00000
 30
 0
 11
797.00100
 21
230.00000
  0
LINE
  8
Contour
 62
   7
 39
0.100
  6
CONTINUOUS
 10
797.00100
 20
230.00000
 30
 0
 11
797.00100
 21
230.00000
  0
ARC
  8
Contour
 62
   7
 39
0.100
  6
CONTINUOUS
 10
780.00000
 20
230.00000
 30
 0
 40
17.00100
 50
0.00000
 51
90.00000
  0
LINE
  8
Contour
 62
   7
 39
0.100
  6
CONTINUOUS
 10
780.00000
 20
247.00100
 30
 0
 11
20.00000
 21
247.00100
  0
LINE
  8
Contour
 62
   7
 39
0.100
  6
CONTINUOUS
 10
780.00000
 20
250.00000
 30
 0
 11
20.00000
 21
250.00000
  0
ARC
  8
Contour
 62
   7
 39
0.100
  6
CONTINUOUS
 10
20.00000
 20
230.00000
 30
 0
 40
20.00000
 50
90.00000
 51
180.00000
  0
LINE
  8
Contour
 62
   7
 39
0.100
  6
CONTINUOUS
 10
0.00000
 20
230.00000
 30
 0
 11
0.00000
 21
60.00000
  0
ARC
  8
Contour
 62
   7
 39
0.100
  6
CONTINUOUS
 10
60.00000
 20
60.00000
 30
 0
 40
60.00000
 50
180.00000
 51
270.00000
  0
LINE
  8
Contour
 62
   7
 39
0.100
  6
CONTINUOUS
 10
60.00000
 20
0.00000
 30
 0
 11
740.00000
 21
0.00000
  0
ARC
  8
Contour
 62
   7
 39
0.100
  6
CONTINUOUS
 10
740.00000
 20
60.00000
 30
 0
 40
60.00000
 50
-90.00000
 51
0.00000
  0
LINE
  8
Contour
 62
   7
 39
0.100
  6
CONTINUOUS
 10
800.00000
 20
60.00000
 30
 0
 11
800.00000
 21
230.00000
  0
ARC
  8
Contour
 62
   7
 39
0.100
  6
CONTINUOUS
 10
780.00000
 20
230.00000
 30
 0
 40
20.00000
 50
0.00000
 51
90.00000
  0
CIRCLE
  8
Contour
 62
   7
 39
0.100
  6
CONTINUOUS
 10
320.00000
 20
200.00000
 30
 0
 40
12.00000
  0
CIRCLE
  8
Contour
 62
   7
 39
0.100
  6
CONTINUOUS
 10
350.00000
 20
200.00000
 30
 0
 40
12.00000
  0
CIRCLE
  8
Contour
 62
   7
 39
0.100
  6
CONTINUOUS
 10
450.00000
 20
200.00000
 30
 0
 40
12.00000
  0
CIRCLE
  8
Contour
 62
   7
 39
0.100
  6
CONTINUOUS
 10
480.00000
 20
200.00000
 30
 0
 40
12.00000
  0
CIRCLE
  8
Contour
 62
   7
 39
0.100
  6
CONTINUOUS
 10
400.00000
 20
200.00000
 30
 0
 40
12.00000
  0
CIRCLE
  8
Contour
 62
   7
 39
0.100
  6
CONTINUOUS
 10
80.00000
 20
161.25000
 30
 0
 40
3.50000
  0
CIRCLE
  8
Contour
 62
   7
 39
0.100
  6
CONTINUOUS
 10
80.00000
 20
161.25000
 30
 0
 40
1.50000
  0
CIRCLE
  8
Contour
 62
   7
 39
0.100
  6
CONTINUOUS
 10
80.00000
 20
78.75000
 30
 0
 40
3.50000
  0
CIRCLE
  8
Contour
 62
   7
 39
0.100
  6
CONTINUOUS
 10
80.00000
 20
78.75000
 30
 0
 40
1.50000
  0
CIRCLE
  8
Contour
 62
   7
 39
0.100
  6
CONTINUOUS
 10
120.00000
 20
161.25000
 30
 0
 40
3.50000
  0
CIRCLE
  8
Contour
 62
   7
 39
0.100
  6
CONTINUOUS
 10
120.00000
 20
161.25000
 30
 0
 40
1.50000
  0
CIRCLE
  8
Contour
 62
   7
 39
0.100
  6
CONTINUOUS
 10
120.00000
 20
78.75000
 30
 0
 40
3.50000
  0
CIRCLE
  8
Contour
 62
   7
 39
0.100
  6
CONTINUOUS
 10
120.00000
 20
78.75000
 30
 0
 40
1.50000
  0
CIRCLE
  8
Contour
 62
   7
 39
0.100
  6
CONTINUOUS
 10
100.00000
 20
120.00000
 30
 0
 40
12.00000
  0
CIRCLE
  8
Contour
 62
   7
 39
0.100
  6
CONTINUOUS
 10
166.00000
 20
144.50000
 30
 0
 40
15.00000
  0
CIRCLE
  8
Contour
 62
   7
 39
0.100
  6
CONTINUOUS
 10
199.00000
 20
158.50000
 30
 0
 40
15.00000
  0
CIRCLE
  8
Contour
 62
   7
 39
0.100
  6
CONTINUOUS
 10
234.50000
 20
152.50000
 30
 0
 40
15.00000
  0
CIRCLE
  8
Contour
 62
   7
 39
0.100
  6
CONTINUOUS
 10
268.50000
 20
137.50000
 30
 0
 40
15.00000
  0
CIRCLE
  8
Contour
 62
   7
 39
0.100
  6
CONTINUOUS
 10
192.00000
 20
120.00000
 30
 0
 40
15.00000
  0
CIRCLE
  8
Contour
 62
   7
 39
0.100
  6
CONTINUOUS
 10
228.00000
 20
114.00000
 30
 0
 40
15.00000
  0
CIRCLE
  8
Contour
 62
   7
 39
0.100
  6
CONTINUOUS
 10
159.00000
 20
106.00000
 30
 0
 40
15.00000
  0
CIRCLE
  8
Contour
 62
   7
 39
0.100
  6
CONTINUOUS
 10
262.00000
 20
99.00000
 30
 0
 40
15.00000
  0
CIRCLE
  8
Contour
 62
   7
 39
0.100
  6
CONTINUOUS
 10
510.00000
 20
161.25000
 30
 0
 40
3.50000
  0
CIRCLE
  8
Contour
 62
   7
 39
0.100
  6
CONTINUOUS
 10
510.00000
 20
161.25000
 30
 0
 40
1.50000
  0
CIRCLE
  8
Contour
 62
   7
 39
0.100
  6
CONTINUOUS
 10
510.00000
 20
78.75000
 30
 0
 40
3.50000
  0
CIRCLE
  8
Contour
 62
   7
 39
0.100
  6
CONTINUOUS
 10
510.00000
 20
78.75000
 30
 0
 40
1.50000
  0
CIRCLE
  8
Contour
 62
   7
 39
0.100
  6
CONTINUOUS
 10
550.00000
 20
161.25000
 30
 0
 40
3.50000
  0
CIRCLE
  8
Contour
 62
   7
 39
0.100
  6
CONTINUOUS
 10
550.00000
 20
161.25000
 30
 0
 40
1.50000
  0
CIRCLE
  8
Contour
 62
   7
 39
0.100
  6
CONTINUOUS
 10
550.00000
 20
78.75000
 30
 0
 40
3.50000
  0
CIRCLE
  8
Contour
 62
   7
 39
0.100
  6
CONTINUOUS
 10
550.00000
 20
78.75000
 30
 0
 40
1.50000
  0
CIRCLE
  8
Contour
 62
   7
 39
0.100
  6
CONTINUOUS
 10
530.00000
 20
120.00000
 30
 0
 40
12.00000
  0
CIRCLE
  8
Contour
 62
   7
 39
0.100
  6
CONTINUOUS
 10
593.00000
 20
139.00000
 30
 0
 40
15.00000
  0
CIRCLE
  8
Contour
 62
   7
 39
0.100
  6
CONTINUOUS
 10
623.50000
 20
159.00000
 30
 0
 40
15.00000
  0
CIRCLE
  8
Contour
 62
   7
 39
0.100
  6
CONTINUOUS
 10
659.50000
 20
159.00000
 30
 0
 40
15.00000
  0
CIRCLE
  8
Contour
 62
   7
 39
0.100
  6
CONTINUOUS
 10
695.00000
 20
150.00000
 30
 0
 40
15.00000
  0
CIRCLE
  8
Contour
 62
   7
 39
0.100
  6
CONTINUOUS
 10
623.50000
 20
120.00000
 30
 0
 40
15.00000
  0
CIRCLE
  8
Contour
 62
   7
 39
0.100
  6
CONTINUOUS
 10
659.50000
 20
120.00000
 30
 0
 40
15.00000
  0
CIRCLE
  8
Contour
 62
   7
 39
0.100
  6
CONTINUOUS
 10
593.00000
 20
100.00000
 30
 0
 40
15.00000
  0
CIRCLE
  8
Contour
 62
   7
 39
0.100
  6
CONTINUOUS
 10
695.00000
 20
111.00000
 30
 0
 40
15.00000
  0
CIRCLE
  8
Contour
 62
   7
 39
0.100
  6
CONTINUOUS
 10
50.00000
 20
50.00000
 30
 0
 40
3.50000
  0
CIRCLE
  8
Contour
 62
   7
 39
0.100
  6
CONTINUOUS
 10
50.00000
 20
50.00000
 30
 0
 40
1.50000
  0
CIRCLE
  8
Contour
 62
   7
 39
0.100
  6
CONTINUOUS
 10
750.00000
 20
50.00000
 30
 0
 40
3.50000
  0
CIRCLE
  8
Contour
 62
   7
 39
0.100
  6
CONTINUOUS
 10
750.00000
 20
50.00000
 30
 0
 40
1.50000
  0
CIRCLE
  8
Contour
 62
   7
 39
0.100
  6
CONTINUOUS
 10
250.00000
 20
50.00000
 30
 0
 40
3.50000
  0
CIRCLE
  8
Contour
 62
   7
 39
0.100
  6
CONTINUOUS
 10
250.00000
 20
50.00000
 30
 0
 40
1.50000
  0
CIRCLE
  8
Contour
 62
   7
 39
0.100
  6
CONTINUOUS
 10
550.00000
 20
50.00000
 30
 0
 40
3.50000
  0
CIRCLE
  8
Contour
 62
   7
 39
0.100
  6
CONTINUOUS
 10
550.00000
 20
50.00000
 30
 0
 40
1.50000
  0
CIRCLE
  8
Contour
 62
   7
 39
0.100
  6
CONTINUOUS
 10
50.00000
 20
200.00000
 30
 0
 40
3.50000
  0
CIRCLE
  8
Contour
 62
   7
 39
0.100
  6
CONTINUOUS
 10
50.00000
 20
200.00000
 30
 0
 40
1.50000
  0
CIRCLE
  8
Contour
 62
   7
 39
0.100
  6
CONTINUOUS
 10
750.00000
 20
200.00000
 30
 0
 40
3.50000
  0
CIRCLE
  8
Contour
 62
   7
 39
0.100
  6
CONTINUOUS
 10
750.00000
 20
200.00000
 30
 0
 40
1.50000
  0
CIRCLE
  8
Contour
 62
   7
 39
0.100
  6
CONTINUOUS
 10
250.00000
 20
200.00000
 30
 0
 40
3.50000
  0
CIRCLE
  8
Contour
 62
   7
 39
0.100
  6
CONTINUOUS
 10
250.00000
 20
200.00000
 30
 0
 40
1.50000
  0
CIRCLE
  8
Contour
 62
   7
 39
0.100
  6
CONTINUOUS
 10
550.00000
 20
200.00000
 30
 0
 40
3.50000
  0
CIRCLE
  8
Contour
 62
   7
 39
0.100
  6
CONTINUOUS
 10
550.00000
 20
200.00000
 30
 0
 40
1.50000
  0
LINE
  8
Reference_points
 62
   1
 39
0.100
  6
CONTINUOUS
 10
-1.00000
 20
0.00000
 30
 0
 11
1.00000
 21
0.00000
  0
LINE
  8
Reference_points
 62
   1
 39
0.100
  6
CONTINUOUS
 10
0.00000
 20
-1.00000
 30
 0
 11
0.00000
 21
1.00000
  0
LINE
  8
Reference_points
 62
   1
 39
0.100
  6
CONTINUOUS
 10
319.00000
 20
200.00000
 30
 0
 11
321.00000
 21
200.00000
  0
LINE
  8
Reference_points
 62
   1
 39
0.100
  6
CONTINUOUS
 10
320.00000
 20
199.00000
 30
 0
 11
320.00000
 21
201.00000
  0
LINE
  8
Reference_points
 62
   1
 39
0.100
  6
CONTINUOUS
 10
349.00000
 20
200.00000
 30
 0
 11
351.00000
 21
200.00000
  0
LINE
  8
Reference_points
 62
   1
 39
0.100
  6
CONTINUOUS
 10
350.00000
 20
199.00000
 30
 0
 11
350.00000
 21
201.00000
  0
LINE
  8
Reference_points
 62
   1
 39
0.100
  6
CONTINUOUS
 10
449.00000
 20
200.00000
 30
 0
 11
451.00000
 21
200.00000
  0
LINE
  8
Reference_points
 62
   1
 39
0.100
  6
CONTINUOUS
 10
450.00000
 20
199.00000
 30
 0
 11
450.00000
 21
201.00000
  0
LINE
  8
Reference_points
 62
   1
 39
0.100
  6
CONTINUOUS
 10
479.00000
 20
200.00000
 30
 0
 11
481.00000
 21
200.00000
  0
LINE
  8
Reference_points
 62
   1
 39
0.100
  6
CONTINUOUS
 10
480.00000
 20
199.00000
 30
 0
 11
480.00000
 21
201.00000
  0
LINE
  8
Reference_points
 62
   1
 39
0.100
  6
CONTINUOUS
 10
399.00000
 20
200.00000
 30
 0
 11
401.00000
 21
200.00000
  0
LINE
  8
Reference_points
 62
   1
 39
0.100
  6
CONTINUOUS
 10
400.00000
 20
199.00000
 30
 0
 11
400.00000
 21
201.00000
  0
LINE
  8
Reference_points
 62
   1
 39
0.100
  6
CONTINUOUS
 10
79.00000
 20
161.25000
 30
 0
 11
81.00000
 21
161.25000
  0
LINE
  8
Reference_points
 62
   1
 39
0.100
  6
CONTINUOUS
 10
80.00000
 20
160.25000
 30
 0
 11
80.00000
 21
162.25000
  0
LINE
  8
Reference_points
 62
   1
 39
0.100
  6
CONTINUOUS
 10
79.00000
 20
78.75000
 30
 0
 11
81.00000
 21
78.75000
  0
LINE
  8
Reference_points
 62
   1
 39
0.100
  6
CONTINUOUS
 10
80.00000
 20
77.75000
 30
 0
 11
80.00000
 21
79.75000
  0
LINE
  8
Reference_points
 62
   1
 39
0.100
  6
CONTINUOUS
 10
119.00000
 20
161.25000
 30
 0
 11
121.00000
 21
161.25000
  0
LINE
  8
Reference_points
 62
   1
 39
0.100
  6
CONTINUOUS
 10
120.00000
 20
160.25000
 30
 0
 11
120.00000
 21
162.25000
  0
LINE
  8
Reference_points
 62
   1
 39
0.100
  6
CONTINUOUS
 10
119.00000
 20
78.75000
 30
 0
 11
121.00000
 21
78.75000
  0
LINE
  8
Reference_points
 62
   1
 39
0.100
  6
CONTINUOUS
 10
120.00000
 20
77.75000
 30
 0
 11
120.00000
 21
79.75000
  0
LINE
  8
Reference_points
 62
   1
 39
0.100
  6
CONTINUOUS
 10
99.00000
 20
120.00000
 30
 0
 11
101.00000
 21
120.00000
  0
LINE
  8
Reference_points
 62
   1
 39
0.100
  6
CONTINUOUS
 10
100.00000
 20
119.00000
 30
 0
 11
100.00000
 21
121.00000
  0
LINE
  8
Reference_points
 62
   1
 39
0.100
  6
CONTINUOUS
 10
165.00000
 20
144.50000
 30
 0
 11
167.00000
 21
144.50000
  0
LINE
  8
Reference_points
 62
   1
 39
0.100
  6
CONTINUOUS
 10
166.00000
 20
143.50000
 30
 0
 11
166.00000
 21
145.50000
  0
LINE
  8
Reference_points
 62
   1
 39
0.100
  6
CONTINUOUS
 10
198.00000
 20
158.50000
 30
 0
 11
200.00000
 21
158.50000
  0
LINE
  8
Reference_points
 62
   1
 39
0.100
  6
CONTINUOUS
 10
199.00000
 20
157.50000
 30
 0
 11
199.00000
 21
159.50000
  0
LINE
  8
Reference_points
 62
   1
 39
0.100
  6
CONTINUOUS
 10
233.50000
 20
152.50000
 30
 0
 11
235.50000
 21
152.50000
  0
LINE
  8
Reference_points
 62
   1
 39
0.100
  6
CONTINUOUS
 10
234.50000
 20
151.50000
 30
 0
 11
234.50000
 21
153.50000
  0
LINE
  8
Reference_points
 62
   1
 39
0.100
  6
CONTINUOUS
 10
267.50000
 20
137.50000
 30
 0
 11
269.50000
 21
137.50000
  0
LINE
  8
Reference_points
 62
   1
 39
0.100
  6
CONTINUOUS
 10
268.50000
 20
136.50000
 30
 0
 11
268.50000
 21
138.50000
  0
LINE
  8
Reference_points
 62
   1
 39
0.100
  6
CONTINUOUS
 10
191.00000
 20
120.00000
 30
 0
 11
193.00000
 21
120.00000
  0
LINE
  8
Reference_points
 62
   1
 39
0.100
  6
CONTINUOUS
 10
192.00000
 20
119.00000
 30
 0
 11
192.00000
 21
121.00000
  0
LINE
  8
Reference_points
 62
   1
 39
0.100
  6
CONTINUOUS
 10
227.00000
 20
114.00000
 30
 0
 11
229.00000
 21
114.00000
  0
LINE
  8
Reference_points
 62
   1
 39
0.100
  6
CONTINUOUS
 10
228.00000
 20
113.00000
 30
 0
 11
228.00000
 21
115.00000
  0
LINE
  8
Reference_points
 62
   1
 39
0.100
  6
CONTINUOUS
 10
158.00000
 20
106.00000
 30
 0
 11
160.00000
 21
106.00000
  0
LINE
  8
Reference_points
 62
   1
 39
0.100
  6
CONTINUOUS
 10
159.00000
 20
105.00000
 30
 0
 11
159.00000
 21
107.00000
  0
LINE
  8
Reference_points
 62
   1
 39
0.100
  6
CONTINUOUS
 10
261.00000
 20
99.00000
 30
 0
 11
263.00000
 21
99.00000
  0
LINE
  8
Reference_points
 62
   1
 39
0.100
  6
CONTINUOUS
 10
262.00000
 20
98.00000
 30
 0
 11
262.00000
 21
100.00000
  0
LINE
  8
Reference_points
 62
   1
 39
0.100
  6
CONTINUOUS
 10
99.00000
 20
120.00000
 30
 0
 11
101.00000
 21
120.00000
  0
LINE
  8
Reference_points
 62
   1
 39
0.100
  6
CONTINUOUS
 10
100.00000
 20
119.00000
 30
 0
 11
100.00000
 21
121.00000
  0
LINE
  8
Reference_points
 62
   1
 39
0.100
  6
CONTINUOUS
 10
509.00000
 20
161.25000
 30
 0
 11
511.00000
 21
161.25000
  0
LINE
  8
Reference_points
 62
   1
 39
0.100
  6
CONTINUOUS
 10
510.00000
 20
160.25000
 30
 0
 11
510.00000
 21
162.25000
  0
LINE
  8
Reference_points
 62
   1
 39
0.100
  6
CONTINUOUS
 10
509.00000
 20
78.75000
 30
 0
 11
511.00000
 21
78.75000
  0
LINE
  8
Reference_points
 62
   1
 39
0.100
  6
CONTINUOUS
 10
510.00000
 20
77.75000
 30
 0
 11
510.00000
 21
79.75000
  0
LINE
  8
Reference_points
 62
   1
 39
0.100
  6
CONTINUOUS
 10
549.00000
 20
161.25000
 30
 0
 11
551.00000
 21
161.25000
  0
LINE
  8
Reference_points
 62
   1
 39
0.100
  6
CONTINUOUS
 10
550.00000
 20
160.25000
 30
 0
 11
550.00000
 21
162.25000
  0
LINE
  8
Reference_points
 62
   1
 39
0.100
  6
CONTINUOUS
 10
549.00000
 20
78.75000
 30
 0
 11
551.00000
 21
78.75000
  0
LINE
  8
Reference_points
 62
   1
 39
0.100
  6
CONTINUOUS
 10
550.00000
 20
77.75000
 30
 0
 11
550.00000
 21
79.75000
  0
LINE
  8
Reference_points
 62
   1
 39
0.100
  6
CONTINUOUS
 10
529.00000
 20
120.00000
 30
 0
 11
531.00000
 21
120.00000
  0
LINE
  8
Reference_points
 62
   1
 39
0.100
  6
CONTINUOUS
 10
530.00000
 20
119.00000
 30
 0
 11
530.00000
 21
121.00000
  0
LINE
  8
Reference_points
 62
   1
 39
0.100
  6
CONTINUOUS
 10
592.00000
 20
139.00000
 30
 0
 11
594.00000
 21
139.00000
  0
LINE
  8
Reference_points
 62
   1
 39
0.100
  6
CONTINUOUS
 10
593.00000
 20
138.00000
 30
 0
 11
593.00000
 21
140.00000
  0
LINE
  8
Reference_points
 62
   1
 39
0.100
  6
CONTINUOUS
 10
622.50000
 20
159.00000
 30
 0
 11
624.50000
 21
159.00000
  0
LINE
  8
Reference_points
 62
   1
 39
0.100
  6
CONTINUOUS
 10
623.50000
 20
158.00000
 30
 0
 11
623.50000
 21
160.00000
  0
LINE
  8
Reference_points
 62
   1
 39
0.100
  6
CONTINUOUS
 10
658.50000
 20
159.00000
 30
 0
 11
660.50000
 21
159.00000
  0
LINE
  8
Reference_points
 62
   1
 39
0.100
  6
CONTINUOUS
 10
659.50000
 20
158.00000
 30
 0
 11
659.50000
 21
160.00000
  0
LINE
  8
Reference_points
 62
   1
 39
0.100
  6
CONTINUOUS
 10
694.00000
 20
150.00000
 30
 0
 11
696.00000
 21
150.00000
  0
LINE
  8
Reference_points
 62
   1
 39
0.100
  6
CONTINUOUS
 10
695.00000
 20
149.00000
 30
 0
 11
695.00000
 21
151.00000
  0
LINE
  8
Reference_points
 62
   1
 39
0.100
  6
CONTINUOUS
 10
622.50000
 20
120.00000
 30
 0
 11
624.50000
 21
120.00000
  0
LINE
  8
Reference_points
 62
   1
 39
0.100
  6
CONTINUOUS
 10
623.50000
 20
119.00000
 30
 0
 11
623.50000
 21
121.00000
  0
LINE
  8
Reference_points
 62
   1
 39
0.100
  6
CONTINUOUS
 10
658.50000
 20
120.00000
 30
 0
 11
660.50000
 21
120.00000
  0
LINE
  8
Reference_points
 62
   1
 39
0.100
  6
CONTINUOUS
 10
659.50000
 20
119.00000
 30
 0
 11
659.50000
 21
121.00000
  0
LINE
  8
Reference_points
 62
   1
 39
0.100
  6
CONTINUOUS
 10
592.00000
 20
100.00000
 30
 0
 11
594.00000
 21
100.00000
  0
LINE
  8
Reference_points
 62
   1
 39
0.100
  6
CONTINUOUS
 10
593.00000
 20
99.00000
 30
 0
 11
593.00000
 21
101.00000
  0
LINE
  8
Reference_points
 62
   1
 39
0.100
  6
CONTINUOUS
 10
694.00000
 20
111.00000
 30
 0
 11
696.00000
 21
111.00000
  0
LINE
  8
Reference_points
 62
   1
 39
0.100
  6
CONTINUOUS
 10
695.00000
 20
110.00000
 30
 0
 11
695.00000
 21
112.00000
  0
LINE
  8
Reference_points
 62
   1
 39
0.100
  6
CONTINUOUS
 10
529.00000
 20
120.00000
 30
 0
 11
531.00000
 21
120.00000
  0
LINE
  8
Reference_points
 62
   1
 39
0.100
  6
CONTINUOUS
 10
530.00000
 20
119.00000
 30
 0
 11
530.00000
 21
121.00000
  0
LINE
  8
Reference_points
 62
   1
 39
0.100
  6
CONTINUOUS
 10
49.00000
 20
50.00000
 30
 0
 11
51.00000
 21
50.00000
  0
LINE
  8
Reference_points
 62
   1
 39
0.100
  6
CONTINUOUS
 10
50.00000
 20
49.00000
 30
 0
 11
50.00000
 21
51.00000
  0
LINE
  8
Reference_points
 62
   1
 39
0.100
  6
CONTINUOUS
 10
749.00000
 20
50.00000
 30
 0
 11
751.00000
 21
50.00000
  0
LINE
  8
Reference_points
 62
   1
 39
0.100
  6
CONTINUOUS
 10
750.00000
 20
49.00000
 30
 0
 11
750.00000
 21
51.00000
  0
LINE
  8
Reference_points
 62
   1
 39
0.100
  6
CONTINUOUS
 10
249.00000
 20
50.00000
 30
 0
 11
251.00000
 21
50.00000
  0
LINE
  8
Reference_points
 62
   1
 39
0.100
  6
CONTINUOUS
 10
250.00000
 20
49.00000
 30
 0
 11
250.00000
 21
51.00000
  0
LINE
  8
Reference_points
 62
   1
 39
0.100
  6
CONTINUOUS
 10
549.00000
 20
50.00000
 30
 0
 11
551.00000
 21
50.00000
  0
LINE
  8
Reference_points
 62
   1
 39
0.100
  6
CONTINUOUS
 10
550.00000
 20
49.00000
 30
 0
 11
550.00000
 21
51.00000
  0
LINE
  8
Reference_points
 62
   1
 39
0.100
  6
CONTINUOUS
 10
49.00000
 20
200.00000
 30
 0
 11
51.00000
 21
200.00000
  0
LINE
  8
Reference_points
 62
   1
 39
0.100
  6
CONTINUOUS
 10
50.00000
 20
199.00000
 30
 0
 11
50.00000
 21
201.00000
  0
LINE
  8
Reference_points
 62
   1
 39
0.100
  6
CONTINUOUS
 10
749.00000
 20
200.00000
 30
 0
 11
751.00000
 21
200.00000
  0
LINE
  8
Reference_points
 62
   1
 39
0.100
  6
CONTINUOUS
 10
750.00000
 20
199.00000
 30
 0
 11
750.00000
 21
201.00000
  0
LINE
  8
Reference_points
 62
   1
 39
0.100
  6
CONTINUOUS
 10
249.00000
 20
200.00000
 30
 0
 11
251.00000
 21
200.00000
  0
LINE
  8
Reference_points
 62
   1
 39
0.100
  6
CONTINUOUS
 10
250.00000
 20
199.00000
 30
 0
 11
250.00000
 21
201.00000
  0
LINE
  8
Reference_points
 62
   1
 39
0.100
  6
CONTINUOUS
 10
549.00000
 20
200.00000
 30
 0
 11
551.00000
 21
200.00000
  0
LINE
  8
Reference_points
 62
   1
 39
0.100
  6
CONTINUOUS
 10
550.00000
 20
199.00000
 30
 0
 11
550.00000
 21
201.00000
  0
ENDSEC
  0
EOF
