<?xml version="1.0" standalone="no"?>
<!DOCTYPE svg PUBLIC "-//W3C//DTD SVG 1.1//EN" 
  "http://www.w3.org/Graphics/SVG/1.1/DTD/svg11.dtd">
<svg width="800.000mm" height="250.000mm" version="1.1"
     viewBox="0 0 800.000 250.000"
     xmlns="http://www.w3.org/2000/svg"
     xmlns:fpd="http://www.schaeffer-ag.de">
  <desc>Created with the Front Panel Designer by the export of the file 'Arcade Panel.fpd'.</desc>
  <defs>
    <pattern id="revside-fill" x="1" y="1" width="1.5" height="1.5" patternUnits="userSpaceOnUse">
      <line x1="0" y1="0" x2="1" y2="1" style="stroke-width:0.2; stroke:black; stroke-dasharray:none;" />
      <line x1="0" y1="1" x2="1" y2="0" style="stroke-width:0.2; stroke:black; stroke-dasharray:none;" />
    </pattern>
    <pattern id="revside-fill-e0e0e0" x="1" y="1" width="1.5" height="1.5" patternUnits="userSpaceOnUse">
      <line x1="0" y1="0" x2="1.5" y2="1.5" style="stroke-width:0.2; stroke:#e0e0e0; stroke-dasharray:none;" />
      <line x1="0" y1="1.5" x2="1.5" y2="0" style="stroke-width:0.2; stroke:#e0e0e0; stroke-dasharray:none;" />
    </pattern>
  </defs>
<g transform="scale(1,-1) translate(0, -250.000)" 
   fill-rule="evenodd"
   style="stroke-linecap:round; stroke-linejoin:round; stroke-opacity:1.0; stroke-opacity:1.0;">
<path d="M780.000 250.000 
L20.000 250.000
A20.000,20.000 0 0,1 0.000,230.000
L0.000 60.000
A60.000,60.000 0 0,1 60.000,0.000
L740.000 0.000
A60.000,60.000 0 0,1 800.000,60.000
L800.000 230.000
A20.000,20.000 0 0,1 780.000,250.000z"
fill="#bbbbbb" vector-effect="non-scaling-stroke" stroke="#000000" stroke-width="0.100mm" />
<path d="M20.000 247.001 
A17.001,17.001 0 0,1 3.000,230.000
L3.000 60.000
L3.000 60.000
A57.000,57.000 0 0,1 60.000,3.000
L740.000 3.000
L740.000 3.000
A57.000,57.000 0 0,1 797.001,60.000
L797.001 230.000
L797.001 230.000
A17.001,17.001 0 0,1 780.000,247.001
L20.000 247.001z
M780.000 250.000 
L20.000 250.000
A20.000,20.000 0 0,1 0.000,230.000
L0.000 60.000
A60.000,60.000 0 0,1 60.000,0.000
L740.000 0.000
A60.000,60.000 0 0,1 800.000,60.000
L800.000 230.000
A20.000,20.000 0 0,1 780.000,250.000z"
fill="#e0e0e0" vector-effect="non-scaling-stroke" stroke="#0000ff" stroke-width="0.100mm" />
<circle cx="320.000" cy="200.000" r="12.000"
fill="#ffffff" vector-effect="non-scaling-stroke" stroke="#000000" stroke-width="0.100mm" 
/>
<circle cx="350.000" cy="200.000" r="12.000"
fill="#ffffff" vector-effect="non-scaling-stroke" stroke="#000000" stroke-width="0.100mm" 
/>
<circle cx="450.000" cy="200.000" r="12.000"
fill="#ffffff" vector-effect="non-scaling-stroke" stroke="#000000" stroke-width="0.100mm" 
/>
<circle cx="480.000" cy="200.000" r="12.000"
fill="#ffffff" vector-effect="non-scaling-stroke" stroke="#000000" stroke-width="0.100mm" 
/>
<circle cx="400.000" cy="200.000" r="12.000"
fill="#ffffff" vector-effect="non-scaling-stroke" stroke="#000000" stroke-width="0.100mm" 
/>
<circle cx="80.000" cy="161.250" r="3.500"
fill="url(#revside-fill-e0e0e0)" vector-effect="non-scaling-stroke" stroke="#00d000" stroke-width="0.100mm" 
/>
<circle cx="80.000" cy="161.250" r="1.500"
fill="url(#revside-fill)" vector-effect="non-scaling-stroke" stroke="#00d000" stroke-width="0.100mm" 
/>
<circle cx="80.000" cy="78.750" r="3.500"
fill="url(#revside-fill-e0e0e0)" vector-effect="non-scaling-stroke" stroke="#00d000" stroke-width="0.100mm" 
/>
<circle cx="80.000" cy="78.750" r="1.500"
fill="url(#revside-fill)" vector-effect="non-scaling-stroke" stroke="#00d000" stroke-width="0.100mm" 
/>
<circle cx="120.000" cy="161.250" r="3.500"
fill="url(#revside-fill-e0e0e0)" vector-effect="non-scaling-stroke" stroke="#00d000" stroke-width="0.100mm" 
/>
<circle cx="120.000" cy="161.250" r="1.500"
fill="url(#revside-fill)" vector-effect="non-scaling-stroke" stroke="#00d000" stroke-width="0.100mm" 
/>
<circle cx="120.000" cy="78.750" r="3.500"
fill="url(#revside-fill-e0e0e0)" vector-effect="non-scaling-stroke" stroke="#00d000" stroke-width="0.100mm" 
/>
<circle cx="120.000" cy="78.750" r="1.500"
fill="url(#revside-fill)" vector-effect="non-scaling-stroke" stroke="#00d000" stroke-width="0.100mm" 
/>
<circle cx="100.000" cy="120.000" r="12.000"
fill="#ffffff" vector-effect="non-scaling-stroke" stroke="#000000" stroke-width="0.100mm" 
/>
<circle cx="166.000" cy="144.500" r="15.000"
fill="#ffffff" vector-effect="non-scaling-stroke" stroke="#000000" stroke-width="0.100mm" 
/>
<circle cx="199.000" cy="158.500" r="15.000"
fill="#ffffff" vector-effect="non-scaling-stroke" stroke="#000000" stroke-width="0.100mm" 
/>
<circle cx="234.500" cy="152.500" r="15.000"
fill="#ffffff" vector-effect="non-scaling-stroke" stroke="#000000" stroke-width="0.100mm" 
/>
<circle cx="268.500" cy="137.500" r="15.000"
fill="#ffffff" vector-effect="non-scaling-stroke" stroke="#000000" stroke-width="0.100mm" 
/>
<circle cx="192.000" cy="120.000" r="15.000"
fill="#ffffff" vector-effect="non-scaling-stroke" stroke="#000000" stroke-width="0.100mm" 
/>
<circle cx="228.000" cy="114.000" r="15.000"
fill="#ffffff" vector-effect="non-scaling-stroke" stroke="#000000" stroke-width="0.100mm" 
/>
<circle cx="159.000" cy="106.000" r="15.000"
fill="#ffffff" vector-effect="non-scaling-stroke" stroke="#000000" stroke-width="0.100mm" 
/>
<circle cx="262.000" cy="99.000" r="15.000"
fill="#ffffff" vector-effect="non-scaling-stroke" stroke="#000000" stroke-width="0.100mm" 
/>
<circle cx="510.000" cy="161.250" r="3.500"
fill="url(#revside-fill-e0e0e0)" vector-effect="non-scaling-stroke" stroke="#00d000" stroke-width="0.100mm" 
/>
<circle cx="510.000" cy="161.250" r="1.500"
fill="url(#revside-fill)" vector-effect="non-scaling-stroke" stroke="#00d000" stroke-width="0.100mm" 
/>
<circle cx="510.000" cy="78.750" r="3.500"
fill="url(#revside-fill-e0e0e0)" vector-effect="non-scaling-stroke" stroke="#00d000" stroke-width="0.100mm" 
/>
<circle cx="510.000" cy="78.750" r="1.500"
fill="url(#revside-fill)" vector-effect="non-scaling-stroke" stroke="#00d000" stroke-width="0.100mm" 
/>
<circle cx="550.000" cy="161.250" r="3.500"
fill="url(#revside-fill-e0e0e0)" vector-effect="non-scaling-stroke" stroke="#00d000" stroke-width="0.100mm" 
/>
<circle cx="550.000" cy="161.250" r="1.500"
fill="url(#revside-fill)" vector-effect="non-scaling-stroke" stroke="#00d000" stroke-width="0.100mm" 
/>
<circle cx="550.000" cy="78.750" r="3.500"
fill="url(#revside-fill-e0e0e0)" vector-effect="non-scaling-stroke" stroke="#00d000" stroke-width="0.100mm" 
/>
<circle cx="550.000" cy="78.750" r="1.500"
fill="url(#revside-fill)" vector-effect="non-scaling-stroke" stroke="#00d000" stroke-width="0.100mm" 
/>
<circle cx="530.000" cy="120.000" r="12.000"
fill="#ffffff" vector-effect="non-scaling-stroke" stroke="#000000" stroke-width="0.100mm" 
/>
<circle cx="593.000" cy="139.000" r="15.000"
fill="#ffffff" vector-effect="non-scaling-stroke" stroke="#000000" stroke-width="0.100mm" 
/>
<circle cx="623.500" cy="159.000" r="15.000"
fill="#ffffff" vector-effect="non-scaling-stroke" stroke="#000000" stroke-width="0.100mm" 
/>
<circle cx="659.500" cy="159.000" r="15.000"
fill="#ffffff" vector-effect="non-scaling-stroke" stroke="#000000" stroke-width="0.100mm" 
/>
<circle cx="695.000" cy="150.000" r="15.000"
fill="#ffffff" vector-effect="non-scaling-stroke" stroke="#000000" stroke-width="0.100mm" 
/>
<circle cx="623.500" cy="120.000" r="15.000"
fill="#ffffff" vector-effect="non-scaling-stroke" stroke="#000000" stroke-width="0.100mm" 
/>
<circle cx="659.500" cy="120.000" r="15.000"
fill="#ffffff" vector-effect="non-scaling-stroke" stroke="#000000" stroke-width="0.100mm" 
/>
<circle cx="593.000" cy="100.000" r="15.000"
fill="#ffffff" vector-effect="non-scaling-stroke" stroke="#000000" stroke-width="0.100mm" 
/>
<circle cx="695.000" cy="111.000" r="15.000"
fill="#ffffff" vector-effect="non-scaling-stroke" stroke="#000000" stroke-width="0.100mm" 
/>
<circle cx="50.000" cy="50.000" r="3.500"
fill="url(#revside-fill-e0e0e0)" vector-effect="non-scaling-stroke" stroke="#00d000" stroke-width="0.100mm" 
/>
<circle cx="50.000" cy="50.000" r="1.500"
fill="url(#revside-fill)" vector-effect="non-scaling-stroke" stroke="#00d000" stroke-width="0.100mm" 
/>
<circle cx="750.000" cy="50.000" r="3.500"
fill="url(#revside-fill-e0e0e0)" vector-effect="non-scaling-stroke" stroke="#00d000" stroke-width="0.100mm" 
/>
<circle cx="750.000" cy="50.000" r="1.500"
fill="url(#revside-fill)" vector-effect="non-scaling-stroke" stroke="#00d000" stroke-width="0.100mm" 
/>
<circle cx="250.000" cy="50.000" r="3.500"
fill="url(#revside-fill-e0e0e0)" vector-effect="non-scaling-stroke" stroke="#00d000" stroke-width="0.100mm" 
/>
<circle cx="250.000" cy="50.000" r="1.500"
fill="url(#revside-fill)" vector-effect="non-scaling-stroke" stroke="#00d000" stroke-width="0.100mm" 
/>
<circle cx="550.000" cy="50.000" r="3.500"
fill="url(#revside-fill-e0e0e0)" vector-effect="non-scaling-stroke" stroke="#00d000" stroke-width="0.100mm" 
/>
<circle cx="550.000" cy="50.000" r="1.500"
fill="url(#revside-fill)" vector-effect="non-scaling-stroke" stroke="#00d000" stroke-width="0.100mm" 
/>
<circle cx="50.000" cy="200.000" r="3.500"
fill="url(#revside-fill-e0e0e0)" vector-effect="non-scaling-stroke" stroke="#00d000" stroke-width="0.100mm" 
/>
<circle cx="50.000" cy="200.000" r="1.500"
fill="url(#revside-fill)" vector-effect="non-scaling-stroke" stroke="#00d000" stroke-width="0.100mm" 
/>
<circle cx="750.000" cy="200.000" r="3.500"
fill="url(#revside-fill-e0e0e0)" vector-effect="non-scaling-stroke" stroke="#00d000" stroke-width="0.100mm" 
/>
<circle cx="750.000" cy="200.000" r="1.500"
fill="url(#revside-fill)" vector-effect="non-scaling-stroke" stroke="#00d000" stroke-width="0.100mm" 
/>
<circle cx="250.000" cy="200.000" r="3.500"
fill="url(#revside-fill-e0e0e0)" vector-effect="non-scaling-stroke" stroke="#00d000" stroke-width="0.100mm" 
/>
<circle cx="250.000" cy="200.000" r="1.500"
fill="url(#revside-fill)" vector-effect="non-scaling-stroke" stroke="#00d000" stroke-width="0.100mm" 
/>
<circle cx="550.000" cy="200.000" r="3.500"
fill="url(#revside-fill-e0e0e0)" vector-effect="non-scaling-stroke" stroke="#00d000" stroke-width="0.100mm" 
/>
<circle cx="550.000" cy="200.000" r="1.500"
fill="url(#revside-fill)" vector-effect="non-scaling-stroke" stroke="#00d000" stroke-width="0.100mm" 
/>
<path d="M-1.000 0.000 L1.000 0.000
M0.000 -1.000 L0.000 1.000"
fill="none" vector-effect="non-scaling-stroke" stroke="#ff0000" stroke-width="0.100mm" />
<path d="M319.000 200.000 L321.000 200.000
M320.000 199.000 L320.000 201.000"
fill="none" vector-effect="non-scaling-stroke" stroke="#ff0000" stroke-width="0.100mm" />
<path d="M349.000 200.000 L351.000 200.000
M350.000 199.000 L350.000 201.000"
fill="none" vector-effect="non-scaling-stroke" stroke="#ff0000" stroke-width="0.100mm" />
<path d="M449.000 200.000 L451.000 200.000
M450.000 199.000 L450.000 201.000"
fill="none" vector-effect="non-scaling-stroke" stroke="#ff0000" stroke-width="0.100mm" />
<path d="M479.000 200.000 L481.000 200.000
M480.000 199.000 L480.000 201.000"
fill="none" vector-effect="non-scaling-stroke" stroke="#ff0000" stroke-width="0.100mm" />
<path d="M399.000 200.000 L401.000 200.000
M400.000 199.000 L400.000 201.000"
fill="none" vector-effect="non-scaling-stroke" stroke="#ff0000" stroke-width="0.100mm" />
<path d="M79.000 161.250 L81.000 161.250
M80.000 160.250 L80.000 162.250"
fill="none" vector-effect="non-scaling-stroke" stroke="#00ff00" stroke-width="0.100mm" />
<path d="M79.000 78.750 L81.000 78.750
M80.000 77.750 L80.000 79.750"
fill="none" vector-effect="non-scaling-stroke" stroke="#00ff00" stroke-width="0.100mm" />
<path d="M119.000 161.250 L121.000 161.250
M120.000 160.250 L120.000 162.250"
fill="none" vector-effect="non-scaling-stroke" stroke="#00ff00" stroke-width="0.100mm" />
<path d="M119.000 78.750 L121.000 78.750
M120.000 77.750 L120.000 79.750"
fill="none" vector-effect="non-scaling-stroke" stroke="#00ff00" stroke-width="0.100mm" />
<path d="M99.000 120.000 L101.000 120.000
M100.000 119.000 L100.000 121.000"
fill="none" vector-effect="non-scaling-stroke" stroke="#00ff00" stroke-width="0.100mm" />
<path d="M165.000 144.500 L167.000 144.500
M166.000 143.500 L166.000 145.500"
fill="none" vector-effect="non-scaling-stroke" stroke="#00ff00" stroke-width="0.100mm" />
<path d="M198.000 158.500 L200.000 158.500
M199.000 157.500 L199.000 159.500"
fill="none" vector-effect="non-scaling-stroke" stroke="#00ff00" stroke-width="0.100mm" />
<path d="M233.500 152.500 L235.500 152.500
M234.500 151.500 L234.500 153.500"
fill="none" vector-effect="non-scaling-stroke" stroke="#00ff00" stroke-width="0.100mm" />
<path d="M267.500 137.500 L269.500 137.500
M268.500 136.500 L268.500 138.500"
fill="none" vector-effect="non-scaling-stroke" stroke="#00ff00" stroke-width="0.100mm" />
<path d="M191.000 120.000 L193.000 120.000
M192.000 119.000 L192.000 121.000"
fill="none" vector-effect="non-scaling-stroke" stroke="#00ff00" stroke-width="0.100mm" />
<path d="M227.000 114.000 L229.000 114.000
M228.000 113.000 L228.000 115.000"
fill="none" vector-effect="non-scaling-stroke" stroke="#00ff00" stroke-width="0.100mm" />
<path d="M158.000 106.000 L160.000 106.000
M159.000 105.000 L159.000 107.000"
fill="none" vector-effect="non-scaling-stroke" stroke="#00ff00" stroke-width="0.100mm" />
<path d="M261.000 99.000 L263.000 99.000
M262.000 98.000 L262.000 100.000"
fill="none" vector-effect="non-scaling-stroke" stroke="#00ff00" stroke-width="0.100mm" />
<path d="M99.000 120.000 L101.000 120.000
M100.000 119.000 L100.000 121.000"
fill="none" vector-effect="non-scaling-stroke" stroke="#ff0000" stroke-width="0.100mm" />
<path d="M509.000 161.250 L511.000 161.250
M510.000 160.250 L510.000 162.250"
fill="none" vector-effect="non-scaling-stroke" stroke="#00ff00" stroke-width="0.100mm" />
<path d="M509.000 78.750 L511.000 78.750
M510.000 77.750 L510.000 79.750"
fill="none" vector-effect="non-scaling-stroke" stroke="#00ff00" stroke-width="0.100mm" />
<path d="M549.000 161.250 L551.000 161.250
M550.000 160.250 L550.000 162.250"
fill="none" vector-effect="non-scaling-stroke" stroke="#00ff00" stroke-width="0.100mm" />
<path d="M549.000 78.750 L551.000 78.750
M550.000 77.750 L550.000 79.750"
fill="none" vector-effect="non-scaling-stroke" stroke="#00ff00" stroke-width="0.100mm" />
<path d="M529.000 120.000 L531.000 120.000
M530.000 119.000 L530.000 121.000"
fill="none" vector-effect="non-scaling-stroke" stroke="#00ff00" stroke-width="0.100mm" />
<path d="M592.000 139.000 L594.000 139.000
M593.000 138.000 L593.000 140.000"
fill="none" vector-effect="non-scaling-stroke" stroke="#00ff00" stroke-width="0.100mm" />
<path d="M622.500 159.000 L624.500 159.000
M623.500 158.000 L623.500 160.000"
fill="none" vector-effect="non-scaling-stroke" stroke="#00ff00" stroke-width="0.100mm" />
<path d="M658.500 159.000 L660.500 159.000
M659.500 158.000 L659.500 160.000"
fill="none" vector-effect="non-scaling-stroke" stroke="#00ff00" stroke-width="0.100mm" />
<path d="M694.000 150.000 L696.000 150.000
M695.000 149.000 L695.000 151.000"
fill="none" vector-effect="non-scaling-stroke" stroke="#00ff00" stroke-width="0.100mm" />
<path d="M622.500 120.000 L624.500 120.000
M623.500 119.000 L623.500 121.000"
fill="none" vector-effect="non-scaling-stroke" stroke="#00ff00" stroke-width="0.100mm" />
<path d="M658.500 120.000 L660.500 120.000
M659.500 119.000 L659.500 121.000"
fill="none" vector-effect="non-scaling-stroke" stroke="#00ff00" stroke-width="0.100mm" />
<path d="M592.000 100.000 L594.000 100.000
M593.000 99.000 L593.000 101.000"
fill="none" vector-effect="non-scaling-stroke" stroke="#00ff00" stroke-width="0.100mm" />
<path d="M694.000 111.000 L696.000 111.000
M695.000 110.000 L695.000 112.000"
fill="none" vector-effect="non-scaling-stroke" stroke="#00ff00" stroke-width="0.100mm" />
<path d="M529.000 120.000 L531.000 120.000
M530.000 119.000 L530.000 121.000"
fill="none" vector-effect="non-scaling-stroke" stroke="#ff0000" stroke-width="0.100mm" />
<path d="M49.000 50.000 L51.000 50.000
M50.000 49.000 L50.000 51.000"
fill="none" vector-effect="non-scaling-stroke" stroke="#ff0000" stroke-width="0.100mm" />
<path d="M749.000 50.000 L751.000 50.000
M750.000 49.000 L750.000 51.000"
fill="none" vector-effect="non-scaling-stroke" stroke="#ff0000" stroke-width="0.100mm" />
<path d="M249.000 50.000 L251.000 50.000
M250.000 49.000 L250.000 51.000"
fill="none" vector-effect="non-scaling-stroke" stroke="#ff0000" stroke-width="0.100mm" />
<path d="M549.000 50.000 L551.000 50.000
M550.000 49.000 L550.000 51.000"
fill="none" vector-effect="non-scaling-stroke" stroke="#ff0000" stroke-width="0.100mm" />
<path d="M49.000 200.000 L51.000 200.000
M50.000 199.000 L50.000 201.000"
fill="none" vector-effect="non-scaling-stroke" stroke="#ff0000" stroke-width="0.100mm" />
<path d="M749.000 200.000 L751.000 200.000
M750.000 199.000 L750.000 201.000"
fill="none" vector-effect="non-scaling-stroke" stroke="#ff0000" stroke-width="0.100mm" />
<path d="M249.000 200.000 L251.000 200.000
M250.000 199.000 L250.000 201.000"
fill="none" vector-effect="non-scaling-stroke" stroke="#ff0000" stroke-width="0.100mm" />
<path d="M549.000 200.000 L551.000 200.000
M550.000 199.000 L550.000 201.000"
fill="none" vector-effect="non-scaling-stroke" stroke="#ff0000" stroke-width="0.100mm" />
</g>
</svg>
